<svg width="192" height="192" viewBox="0 0 192 192" fill="none" xmlns="http://www.w3.org/2000/svg">
<g opacity="0.8" clip-path="url(#clip0_55_752)">
<path d="M37.46 31.002C45.9955 32.507 54.1511 35.6791 61.4609 40.3359C68.7708 44.9928 75.0921 51.0438 80.0635 58.1436C85.0348 65.2433 88.5596 73.2531 90.4355 81.7148C92.3114 90.1764 92.502 98.9246 90.9971 107.46C89.492 115.996 86.32 124.151 81.6631 131.461C77.0062 138.771 70.9553 145.092 63.8555 150.063C56.7557 155.035 48.7459 158.559 40.2842 160.435C31.8226 162.31 23.0744 162.502 14.5391 160.997L20.4424 127.518C22.2475 127.834 24.1044 128 26 128C43.6731 128 58 113.673 58 96C58 80.2221 46.581 67.112 31.5566 64.4814L37.46 31.002Z" fill="#09CB83" style="fill:#09CB83;fill:color(display-p3 0.0338 0.7971 0.5144);fill-opacity:1;"/>
<path d="M26 72C39.2548 72 50 82.7452 50 96C50 109.255 39.2548 120 26 120C12.7452 120 2 109.255 2 96C2 82.7452 12.7452 72 26 72Z" fill="#09CB83" style="fill:#09CB83;fill:color(display-p3 0.0338 0.7971 0.5144);fill-opacity:1;"/>
<path d="M160.442 64.4814C145.418 67.1125 134 80.2226 134 96C134 113.673 148.327 128 166 128C167.895 128 169.753 127.834 171.557 127.518L177.461 160.997C168.925 162.502 160.176 162.31 151.715 160.435C143.253 158.559 135.244 155.035 128.144 150.063C121.045 145.092 114.993 138.771 110.336 131.461C105.679 124.151 102.508 115.995 101.003 107.46C99.4978 98.9246 99.6884 90.1764 101.564 81.7148C103.44 73.2531 106.965 65.2433 111.936 58.1436C116.908 51.044 123.228 44.9928 130.538 40.3359C137.848 35.6792 146.004 32.507 154.539 31.002L160.442 64.4814Z" fill="#29AAE2" style="fill:#29AAE2;fill:color(display-p3 0.1608 0.6667 0.8863);fill-opacity:1;"/>
<path d="M166 72C179.255 72.0001 190 82.7452 190 96C190 109.255 179.255 120 166 120C152.745 120 142 109.255 142 96C142 82.7452 152.745 72 166 72Z" fill="#29AAE2" style="fill:#29AAE2;fill:color(display-p3 0.1608 0.6667 0.8863);fill-opacity:1;"/>
</g>
<defs>
<clipPath id="clip0_55_752">
<rect width="192" height="192" fill="white" style="fill:white;fill-opacity:1;"/>
</clipPath>
</defs>
</svg>
